<?xml version="1.0" standalone="no"?>
<!DOCTYPE svg PUBLIC "-//W3C//DTD SVG 20010904//EN"
 "http://www.w3.org/TR/2001/REC-SVG-20010904/DTD/svg10.dtd">
<svg version="1.0" xmlns="http://www.w3.org/2000/svg"
 width="512.000000pt" height="512.000000pt" viewBox="0 0 512.000000 512.000000"
 preserveAspectRatio="xMidYMid meet">

<g transform="translate(0.000000,512.000000) scale(0.100000,-0.100000)"
fill="#000000" stroke="none">
<path d="M203 5101 c-100 -34 -171 -114 -193 -215 -8 -36 -10 -710 -8 -2356
l3 -2305 21 -46 c31 -66 78 -114 142 -146 l57 -28 1805 -3 c1347 -2 1812 1
1833 9 30 13 57 55 57 89 0 33 -26 75 -55 88 -20 9 -447 12 -1806 12 -1936 0
-1821 -3 -1847 55 -17 38 -17 4572 0 4610 20 45 55 55 187 55 132 0 165 9 187
51 27 52 8 115 -41 137 -43 20 -279 15 -342 -7z"/>
<path d="M851 5106 c-87 -48 -50 -186 49 -186 51 0 100 49 100 99 0 75 -83
124 -149 87z"/>
<path d="M1251 5106 c-67 -37 -65 -143 4 -174 20 -9 447 -12 1805 -12 1358 0
1785 -3 1805 -12 59 -27 55 134 55 -2348 0 -2482 4 -2321 -55 -2348 -15 -7
-74 -12 -146 -12 -132 0 -167 -10 -187 -55 -16 -34 -15 -60 3 -94 23 -46 57
-53 217 -49 133 3 147 5 200 31 64 32 111 80 142 146 l21 46 0 2335 0 2335
-28 57 c-32 64 -80 111 -146 142 l-46 21 -1810 2 c-1491 2 -1814 0 -1834 -11z"/>
<path d="M1123 4395 c-191 -43 -341 -185 -397 -374 -21 -71 -21 -211 0 -282
85 -288 392 -454 667 -360 92 32 140 62 208 130 167 167 205 402 98 613 -37
74 -144 185 -209 218 -119 61 -254 81 -367 55z m254 -225 c68 -34 120 -87 155
-159 32 -65 32 -196 -1 -262 -36 -75 -86 -125 -158 -161 -128 -63 -270 -39
-372 64 -61 62 -85 118 -89 210 -5 91 12 150 60 213 98 129 259 166 405 95z"/>
<path d="M3260 3285 c-142 -32 -249 -76 -352 -146 -32 -22 -60 -39 -63 -39 -3
0 -5 14 -5 31 0 43 -26 94 -56 108 -33 15 -767 16 -795 1 -51 -28 -49 22 -49
-1264 l0 -1196 29 -32 29 -33 396 -3 c428 -3 438 -2 468 51 10 17 14 186 18
757 l5 735 30 53 c35 64 71 97 144 130 142 65 313 3 389 -142 l27 -51 5 -737
5 -738 28 -27 27 -28 395 -3 c426 -3 437 -2 467 51 10 17 13 195 13 847 0 761
-1 832 -18 910 -78 362 -336 640 -692 745 -113 34 -339 44 -445 20z m415 -219
c209 -71 363 -203 456 -391 81 -165 79 -140 79 -1002 l0 -763 -265 0 -265 0 0
653 c0 716 -1 725 -61 837 -58 109 -173 204 -289 241 -89 28 -223 28 -304 -1
-162 -56 -275 -169 -328 -329 -22 -65 -22 -77 -26 -733 l-3 -668 -265 0 -264
0 0 1070 0 1070 250 0 250 0 0 -115 c0 -136 11 -167 65 -185 19 -6 45 -8 57
-5 12 4 67 53 122 109 103 104 168 149 277 193 104 42 173 53 309 49 104 -3
139 -8 205 -30z"/>
<path d="M798 3221 l-33 -29 0 -1204 c0 -959 3 -1208 13 -1225 30 -53 40 -54
468 -51 l396 3 29 33 29 32 0 1196 c0 1286 2 1236 -49 1264 -13 6 -165 10
-420 10 l-401 0 -32 -29z m702 -1241 l0 -1070 -265 0 -265 0 0 1070 0 1070
265 0 265 0 0 -1070z"/>
<path d="M4171 186 c-87 -48 -50 -186 49 -186 51 0 100 49 100 99 0 75 -83
124 -149 87z"/>
</g>
</svg>
