<?xml version="1.0" standalone="no"?>
<!DOCTYPE svg PUBLIC "-//W3C//DTD SVG 20010904//EN"
 "http://www.w3.org/TR/2001/REC-SVG-20010904/DTD/svg10.dtd">
<svg version="1.0" xmlns="http://www.w3.org/2000/svg"
 width="512.000000pt" height="512.000000pt" viewBox="0 0 512.000000 512.000000"
 preserveAspectRatio="xMidYMid meet">

<g transform="translate(0.000000,512.000000) scale(0.100000,-0.100000)"
fill="#000000" stroke="none">
<path d="M591 5106 c-51 -28 -50 -23 -51 -601 l0 -540 -256 -255 c-140 -140
-262 -267 -270 -282 -12 -23 -14 -240 -14 -1502 0 -1038 3 -1491 11 -1528 39
-187 200 -348 387 -387 75 -16 4249 -16 4324 0 187 39 348 200 387 387 8 37
11 490 11 1528 0 1262 -2 1479 -14 1502 -8 15 -130 142 -270 282 l-256 255 0
538 c0 587 0 582 -57 606 -21 8 -231 11 -796 9 l-769 -3 -24 -28 c-33 -38 -33
-96 0 -134 l24 -28 711 -3 711 -2 0 -1018 0 -1017 -913 -913 -912 -912 -908
908 -907 907 0 1023 0 1022 700 0 700 0 32 29 c27 24 33 36 33 71 0 35 -6 47
-33 71 l-32 29 -763 0 c-613 -1 -767 -3 -786 -14z m-51 -1733 l0 -298 -150
150 -150 150 147 147 c81 82 149 148 150 148 2 0 3 -134 3 -297z m4187 -140
l-147 -148 0 295 0 295 147 -148 148 -147 -148 -147z m183 -2800 c-6 -29 -14
-53 -18 -53 -4 0 -313 306 -687 680 l-680 680 695 695 695 695 3 -1322 c2
-952 0 -1338 -8 -1375z m-3997 625 c-373 -373 -681 -678 -684 -678 -26 0 -29
136 -29 1417 l0 1328 695 -695 695 -695 -677 -677z m1642 -238 l49 0 388 387
388 388 680 -680 c374 -374 680 -683 680 -686 0 -27 -148 -29 -2180 -29 -2031
0 -2180 2 -2180 29 0 3 305 311 677 683 l678 678 385 -385 386 -385 49 0z"/>
<path d="M2514 5110 c-55 -22 -72 -108 -31 -155 14 -17 36 -28 63 -32 36 -5
46 -1 75 25 28 25 34 37 34 72 0 72 -72 118 -141 90z"/>
<path d="M2366 4455 c-419 -87 -743 -391 -853 -800 -24 -91 -27 -117 -27 -275
0 -146 4 -187 21 -250 34 -122 79 -229 135 -320 67 -110 233 -278 340 -344
156 -96 335 -155 498 -163 86 -5 97 -3 122 16 49 39 46 122 -5 156 -14 8 -64
20 -113 25 -462 51 -804 428 -804 885 0 426 296 785 719 870 112 23 305 16
406 -14 212 -63 391 -197 509 -378 144 -223 163 -453 60 -724 -31 -83 -84
-145 -148 -175 -94 -44 -173 -25 -207 49 -17 39 -19 71 -19 480 0 475 -1 480
-55 505 -44 20 -75 14 -111 -22 -24 -24 -34 -43 -34 -64 l0 -31 -57 35 c-68
41 -106 53 -193 61 -233 21 -460 -159 -527 -417 -21 -84 -21 -242 1 -335 50
-209 209 -383 387 -424 134 -31 278 7 386 102 25 22 38 28 41 19 19 -58 129
-152 200 -172 136 -37 308 22 419 144 130 143 211 470 174 701 -63 390 -379
728 -786 842 -114 32 -367 41 -479 18z m225 -687 c110 -32 192 -162 206 -324
20 -239 -118 -454 -292 -454 -272 0 -405 461 -199 689 76 84 187 119 285 89z"/>
</g>
</svg>
